<svg width="333" height="121" viewBox="0 0 333 121" fill="none" xmlns="http://www.w3.org/2000/svg">
<path d="M332.787 67.7561C332.046 77.9499 326.436 83.9588 318.444 87.3925C309.976 91.0408 301.032 93.7234 292.194 96.4059C283.567 99.0349 274.888 101.771 265.997 103.434C247.473 106.922 228.791 109.765 210.215 112.931C201.906 114.379 193.756 116.418 185.447 117.598C178.249 118.671 170.945 119.208 163.642 119.476C144.801 120.173 126.013 121.783 107.278 117.169C97.0107 114.647 86.1613 114.808 75.8412 112.555C56.1535 108.263 35.9365 105.044 17.2544 97.9082C-4.28561 89.6995 -5.71456 65.7174 13.2851 52.09C21.7 46.0274 30.75 40.3403 40.2763 36.5311C54.4599 30.9513 69.4374 26.9275 84.0973 22.3671C93.1473 19.5772 102.25 16.7874 111.459 14.4804C119.609 12.4953 127.865 10.993 136.121 9.65175C147.447 7.77396 158.826 5.89616 170.204 4.60853C186.293 2.78438 202.435 1.28215 218.63 0.048167C224.61 -0.434695 227.839 2.73073 227.892 8.73968C227.892 13.1391 230.326 14.0512 233.607 14.9632C255.941 21.0258 278.434 26.4446 300.45 33.5266C310.717 36.7993 321.99 40.5013 327.23 51.8753C329.558 56.9186 330.934 62.4447 332.787 67.7561ZM55.6772 44.7934C41.5465 50.3195 27.7863 55.6846 17.0956 66.5758C6.1404 77.7353 7.62226 83.8515 22.5997 88.6802C47.8444 96.7815 73.9888 100.43 100.027 104.561C111.353 106.385 122.838 108.746 134.11 108.317C163.113 107.244 191.956 104.293 220.482 98.4447C228.632 96.7815 237.259 97.2644 245.356 95.4939C259.222 92.5431 273.036 89.163 286.531 84.8173C296.957 81.4909 307.224 77.0915 316.962 71.9409C324.795 67.8098 324.795 61.8545 317.333 56.9186C310.717 52.5192 303.202 49.4074 295.846 45.6518C289.442 53.6458 283.673 60.9424 277.799 68.239C273.829 73.2286 265.944 76.2867 261.763 74.5162C256.576 72.3165 253.083 65.771 253.665 58.6354C253.824 56.4357 254.353 54.1824 255.2 52.09C257.264 46.8321 259.54 41.6816 261.763 36.3701C259.222 35.7263 256.947 34.5996 254.618 34.6533C252.713 34.7069 250.225 35.5117 249.008 36.9603C246.15 40.3403 243.716 44.2032 241.44 48.0661C236.095 57.2405 228.58 64.2688 219.953 70.0632C212.438 75.0527 203.917 70.9752 203.123 61.8008C202.806 58.2599 203.388 54.3433 204.711 51.0169C207.939 42.9156 211.803 35.1361 215.719 26.5519C210.956 25.9618 206.51 26.1764 202.7 24.7278C196.137 22.2062 194.338 25.8008 192.168 30.844C186.029 44.7397 176.714 55.6846 162.425 61.5862C155.333 64.5371 147.341 59.1719 148.294 51.3925C148.823 47.0467 150.57 42.701 152.475 38.7308C155.65 31.9707 159.408 25.5325 163.589 17.5921C155.015 19.2553 147.976 20.6503 140.885 22.0452C140.673 23.6547 140.938 25.5325 140.144 26.7665C132.576 38.7844 125.272 51.0706 116.91 62.4983C112.623 68.3463 107.225 68.6682 102.462 65.3418C97.3283 61.8008 96.799 56.4894 98.6514 51.0706C101.192 43.8276 104.208 36.7457 107.119 29.4491C102.991 27.464 99.4452 28.1078 96.9578 32.1853C93.0414 38.6235 89.0192 44.9543 85.685 51.7144C80.1809 62.9275 73.0891 72.6384 62.8219 79.774C58.1117 83.1004 53.031 85.622 47.7386 81.8664C42.4991 78.1645 43.293 72.6921 45.2512 67.3806C45.7275 66.0393 46.2038 64.698 46.7859 63.4104C49.8026 57.1332 52.7134 50.9633 55.6772 44.7934ZM163.589 46.0274C172.904 40.6086 179.413 33.0974 181.001 21.9916C169.464 25.5862 168.299 37.1749 163.589 46.0274ZM217.73 54.397C218.206 54.6652 218.736 54.9871 219.212 55.2554C227.098 48.9245 233.131 41.1987 236.518 30.9513C234.719 30.1466 233.131 29.3954 230.908 28.3761C226.41 37.2822 222.07 45.8664 217.73 54.397ZM80.4985 36.6384C79.7046 36.0482 78.9107 35.5117 78.1169 34.9215C69.9137 42.54 65.7327 52.7874 60.8108 62.4983C61.4988 62.9812 62.1868 63.4104 62.8748 63.8932C68.6964 54.7725 74.571 45.7054 80.4985 36.6384ZM282.932 41.5743C280.339 41.5743 276.793 40.6086 275.893 41.7352C271.765 47.154 268.378 53.1093 264.674 58.9037C265.15 59.1719 265.573 59.4402 266.05 59.7621C271.395 53.9678 276.687 48.2271 282.932 41.5743ZM128.342 25.8545C127.654 25.3179 127.019 24.8351 126.331 24.2986C120.985 30.5221 117.439 37.926 114.793 46.0274C119.345 39.2673 123.843 32.5609 128.342 25.8545Z" fill="#E0E0E0"/>
</svg>
